HIERARCHY
ROOT Hips
{
	OFFSET 0.00 0.00 0.00
	CHANNELS 6 Xposition Yposition Zposition Xrotation Yrotation Zrotation
	JOINT LeftUpLeg
	{
		OFFSET 3.64953 0.00000 0.00000
		CHANNELS 3 Xrotation Yrotation Zrotation
		JOINT LeftLeg
		{
			OFFSET 0.00000 -15.70580 0.00000
			CHANNELS 3 Xrotation Yrotation Zrotation
			JOINT LeftFoot
			{
				OFFSET 0.00000 -15.41867 0.00000
				CHANNELS 3 Xrotation Yrotation Zrotation
				JOINT LeftToeBase
				{
					OFFSET 0.00000 -1.53543 5.73033
					CHANNELS 3 Xrotation Yrotation Zrotation
					End Site
					{
						OFFSET 0.00000 0.00000 2.95275
					}
				}
			}
		}
	}
	JOINT RightUpLeg
	{
		OFFSET -3.64953 0.00000 0.00000
		CHANNELS 3 Xrotation Yrotation Zrotation
		JOINT RightLeg
		{
			OFFSET 0.00000 -15.70580 0.00000
			CHANNELS 3 Xrotation Yrotation Zrotation
			JOINT RightFoot
			{
				OFFSET 0.00000 -15.41867 0.00000
				CHANNELS 3 Xrotation Yrotation Zrotation
				JOINT RightToeBase
				{
					OFFSET 0.00000 -1.53543 5.73033
					CHANNELS 3 Xrotation Yrotation Zrotation
					End Site
					{
						OFFSET 0.00000 0.00000 2.95275
					}
				}
			}
		}
	}
	JOINT Spine
	{
		OFFSET 0.00000 0.03937 0.00000
		CHANNELS 3 Xrotation Yrotation Zrotation
		JOINT Spine1
		{
			OFFSET 0.00000 10.24829 0.00000
			CHANNELS 3 Xrotation Yrotation Zrotation
			JOINT Neck
			{
				OFFSET 0.00000 7.82687 0.00000
				CHANNELS 3 Xrotation Yrotation Zrotation
				JOINT Head
				{
					OFFSET 0.00000 6.90715 0.00000
					CHANNELS 3 Xrotation Yrotation Zrotation
					End Site
					{
						OFFSET 0.00000 4.52755 0.00000
					}
				}
			}
			JOINT LeftShoulder
			{
				OFFSET 0.00000 7.82687 0.00000
				CHANNELS 3 Xrotation Yrotation Zrotation
				JOINT LeftArm
				{
					OFFSET 6.71018 -0.00002 0.00000
					CHANNELS 3 Xrotation Yrotation Zrotation
					JOINT LeftForeArm
					{
						OFFSET 10.94419 -0.00004 0.00000
						CHANNELS 3 Xrotation Yrotation Zrotation
						JOINT LeftHand
						{
							OFFSET 8.52010 -0.00003 0.00000
							CHANNELS 3 Xrotation Yrotation Zrotation
							JOINT LeftHandThumb
							{
								OFFSET 0.00000 0.00000 0.00000
								CHANNELS 3 Xrotation Yrotation Zrotation
								End Site
								{
									OFFSET 0.00000 0.00000 3.93700
								}
							}
							JOINT L_Wrist_End
							{
								OFFSET 3.93700 -0.00001 0.00000
								CHANNELS 3 Xrotation Yrotation Zrotation
							}
						}
					}
				}
			}
			JOINT RightShoulder
			{
				OFFSET 0.00000 7.82687 0.00000
				CHANNELS 3 Xrotation Yrotation Zrotation
				JOINT RightArm
				{
					OFFSET -6.71018 -0.00002 0.00000
					CHANNELS 3 Xrotation Yrotation Zrotation
					JOINT RightForeArm
					{
						OFFSET -10.94419 -0.00004 0.00000
						CHANNELS 3 Xrotation Yrotation Zrotation
						JOINT RightHand
						{
							OFFSET -8.52010 -0.00003 0.00000
							CHANNELS 3 Xrotation Yrotation Zrotation
							JOINT RightHandThumb
							{
								OFFSET 0.00000 0.00000 0.00000
								CHANNELS 3 Xrotation Yrotation Zrotation
								End Site
								{
									OFFSET 0.00000 0.00000 3.93700
								}
							}
							JOINT R_Wrist_End
							{
								OFFSET -5.39369 -0.00002 0.00000
								CHANNELS 3 Xrotation Yrotation Zrotation
							}
						}
					}
				}
			}
		}
	}
}
MOTION
Frames: 17
Frame Time: 0.008333
 -86.3379 30.4400 31.3473 4.4724 28.5486 -10.3515 -21.4582 -2.8401 4.5288 80.6662 0.0000 0.0000 -22.9699 -0.1001 4.9877 8.0241 0.0000 -0.0000 -11.2646 -3.5882 5.7565 43.0717 -0.0000 0.0000 -37.4135 -1.9465 -1.9054 0.9776 -0.0000 0.0000 -2.8426 3.1610 1.4635 11.5839 1.5247 1.7736 -1.1110 3.2666 -5.6310 -3.8093 6.5441 2.2479 21.0440 15.0400 -3.9702 -8.2193 -45.2963 -64.2341 -179.9991 -76.9120 -179.9989 -2.5949 3.1381 -14.3095 -0.0000 -0.0000 -0.0000 -0.0000 -0.0000 -0.0000 12.8066 -18.1711 2.3128 -11.8611 44.4934 60.0334 -179.9980 83.8923 179.9978 -18.6941 4.3340 -3.4386 -0.0000 0.0000 0.0000 -0.0000 0.0000 0.0000
 -86.0876 30.6043 31.8141 4.5766 29.0110 -10.3585 -22.4342 -2.7960 4.0408 79.0883 -0.0000 0.0000 -23.6136 -0.0005 5.5012 8.0158 -0.0000 0.0000 -9.5862 -3.5037 5.7890 41.5644 -0.0000 0.0000 -36.3629 -2.1509 -1.7435 0.0229 -0.0000 0.0000 -2.9681 3.4022 1.4788 11.5655 1.7516 1.6880 -1.1826 3.1198 -5.7762 -3.3375 6.2434 2.6177 20.9793 15.2376 -3.8583 -6.7083 -44.6278 -63.3786 -179.9991 -76.6165 -179.9989 -2.8940 3.0447 -14.1576 0.0000 -0.0000 0.0000 0.0000 -0.0000 0.0000 12.5919 -18.0395 1.8156 -13.4639 44.9892 61.4388 -179.9983 82.8446 179.9981 -19.1202 4.6763 -3.4069 -0.0000 -0.0000 0.0000 -0.0000 -0.0000 0.0000
 -85.8452 30.7796 32.2655 4.8441 29.3905 -10.4743 -23.5472 -2.6840 3.6107 77.3383 -0.0000 0.0000 -24.1260 0.0912 6.0274 8.0337 0.0000 0.0000 -8.2185 -3.3896 5.8366 40.2346 -0.0000 0.0000 -35.1432 -2.3182 -1.2934 -0.0754 0.0000 0.0000 -3.1135 3.7165 1.4840 11.3889 2.0578 1.6143 -1.1541 2.8875 -5.7304 -3.0107 5.9648 2.7411 20.9816 15.5340 -3.7252 -5.4587 -44.1543 -62.6033 -179.9991 -76.4414 -179.9989 -3.1044 2.8065 -14.0734 -0.0000 0.0000 0.0000 -0.0000 0.0000 0.0000 12.2984 -17.9787 1.2931 -14.8992 45.3412 62.8919 -179.9986 81.7198 179.9983 -19.0406 4.4500 -3.3168 -0.0000 -0.0000 -0.0000 -0.0000 -0.0000 -0.0000
 -85.5981 30.9677 32.7234 5.0600 29.7431 -10.5762 -24.4707 -2.5445 3.2145 75.2999 -0.0000 0.0000 -24.4264 0.2312 5.9045 7.7400 0.0000 0.0000 -6.8395 -3.1175 5.9087 38.8858 -0.0000 0.0000 -33.6272 -2.3883 -1.1680 -0.7845 0.0000 -0.0000 -3.2509 4.0529 1.4894 11.2964 2.3846 1.5294 -1.2427 2.7278 -5.7037 -2.6377 5.6250 2.8979 20.7270 15.7167 -3.4839 -4.0644 -43.5312 -61.9597 -179.9991 -76.2092 -179.9989 -3.2048 2.5209 -13.9274 -0.0000 0.0000 0.0000 -0.0000 0.0000 0.0000 11.9166 -17.9767 0.7534 -16.2198 45.6289 64.4068 -179.9987 80.6804 179.9985 -19.2749 4.6283 -3.1551 -0.0000 0.0000 -0.0000 -0.0000 0.0000 -0.0000
 -85.3358 31.1682 33.1959 5.1467 30.1961 -10.6118 -25.1226 -2.4184 2.8016 72.9930 -0.0000 0.0000 -24.6173 0.2008 6.2683 7.6434 0.0000 0.0000 -5.2676 -3.1298 5.8988 37.4720 -0.0000 0.0000 -31.7869 -2.3084 -0.8367 -2.2540 0.0000 0.0000 -3.3456 4.3300 1.4930 11.2660 2.6447 1.4216 -1.2195 2.5964 -5.5996 -2.4209 5.3184 2.9641 20.6979 15.8566 -3.3203 -2.9422 -42.8382 -61.3813 -179.9992 -75.9382 -179.9989 -3.2270 2.5302 -13.7456 0.0000 -0.0000 0.0000 0.0000 -0.0000 0.0000 11.7161 -17.9033 0.3323 -17.4679 45.8911 65.7938 -179.9989 79.6176 179.9986 -19.4144 4.8250 -3.5192 0.0000 0.0000 -0.0000 0.0000 0.0000 -0.0000
 -85.0658 31.3749 33.6585 5.3468 30.7385 -10.7296 -25.7799 -2.3976 2.3267 70.4744 -0.0000 0.0000 -24.7132 0.1161 6.5349 7.6086 0.0000 -0.0000 -3.8379 -3.3125 5.8529 36.1373 -0.0000 0.0000 -29.8088 -2.0616 -0.6821 -3.4130 -0.0000 -0.0000 -3.4929 4.5753 1.5373 11.2413 2.8765 1.3268 -1.3979 2.4853 -5.5954 -1.9326 5.0114 3.2036 20.6320 15.9517 -3.1745 -1.9311 -42.1787 -60.8487 -179.9992 -75.7533 -179.9989 -3.3424 2.4319 -13.5721 0.0000 -0.0000 0.0000 0.0000 -0.0000 0.0000 11.4519 -17.9273 -0.0622 -18.5272 46.1320 67.0638 -179.9990 78.5157 179.9987 -19.6990 4.8622 -3.9003 0.0000 0.0000 0.0000 0.0000 0.0000 0.0000
 -84.7830 31.5834 34.1330 5.4097 31.3155 -10.7197 -26.1502 -2.3080 1.8332 67.6798 -0.0000 0.0000 -24.7623 -0.0600 6.5257 7.4969 0.0000 0.0000 -2.2647 -3.7740 5.6881 34.7924 -0.0000 0.0000 -27.5929 -1.5976 -0.3491 -5.2975 0.0000 0.0000 -3.4952 4.8018 1.5108 11.1094 3.0741 1.1824 -1.3654 2.3169 -5.4368 -1.7163 4.7509 3.2023 20.5800 16.0840 -2.9873 -1.0166 -41.4261 -60.4568 -179.9992 -75.5582 -179.9989 -3.8128 2.4638 -13.7274 0.0000 -0.0000 0.0000 0.0000 -0.0000 0.0000 11.3450 -17.9302 -0.3241 -19.4839 46.3254 68.2289 -179.9991 77.4869 179.9988 -19.8306 4.9855 -3.9348 0.0000 0.0000 -0.0000 0.0000 0.0000 -0.0000
 -84.5032 31.7897 34.5889 5.7510 31.9502 -10.8986 -26.7051 -2.3141 1.3234 64.7641 -0.0000 0.0000 -24.6804 -0.2934 6.9495 7.2294 0.0000 0.0000 -1.0299 -4.3992 5.5472 33.5924 -0.0000 0.0000 -25.2475 -1.0326 -0.0683 -6.9008 0.0000 0.0000 -3.5605 4.9957 1.4968 10.7890 3.2534 1.1009 -1.4465 2.1322 -5.4030 -1.2885 4.4740 3.3821 20.7357 16.2019 -2.8599 -0.2992 -40.8679 -60.0907 -179.9992 -75.4502 -179.9990 -4.1488 2.4438 -13.3691 -0.0000 -0.0000 -0.0000 -0.0000 -0.0000 -0.0000 11.1795 -18.0068 -0.5849 -20.1765 46.4726 69.2620 -179.9991 76.3971 179.9989 -19.9647 5.0093 -4.0092 -0.0000 0.0000 -0.0000 -0.0000 0.0000 -0.0000
 -84.2017 31.9925 35.0631 5.8131 32.6233 -10.7920 -26.7718 -2.1629 0.7180 61.4736 -0.0000 0.0000 -24.7400 -0.5327 6.6125 7.0675 -0.0000 0.0000 0.4497 -5.1233 5.2580 32.4162 -0.0000 0.0000 -22.8703 -0.3924 0.2697 -8.5511 -0.0000 0.0000 -3.6445 5.1215 1.4220 10.8867 3.3419 0.8995 -1.5612 2.0654 -5.4070 -1.0608 4.2280 3.6968 20.3410 16.2436 -2.4911 0.7273 -40.0230 -60.0454 -179.9992 -75.3283 -179.9990 -4.4792 2.1804 -12.9497 -0.0000 0.0000 -0.0000 -0.0000 0.0000 -0.0000 10.9605 -18.0434 -0.8716 -21.0884 46.6958 70.4941 -179.9992 75.5466 179.9989 -19.8279 5.0822 -4.0254 -0.0000 -0.0000 -0.0000 -0.0000 -0.0000 -0.0000
 -83.8976 32.1852 35.5261 6.0178 33.3477 -10.7669 -26.8903 -2.0268 0.0802 58.0895 -0.0000 0.0000 -24.6130 -0.7533 6.6418 6.9046 0.0000 -0.0000 1.7201 -6.0076 4.9496 31.3659 0.0000 -0.0000 -20.3842 0.3192 0.6023 -10.6884 0.0000 0.0000 -3.7243 5.2396 1.3426 10.7818 3.4262 0.7155 -1.5482 1.9188 -5.3525 -0.9002 3.9759 3.8522 20.2882 16.2810 -2.1939 1.3860 -39.3829 -60.0328 -179.9992 -75.1908 -179.9990 -4.7480 2.2246 -12.3898 -0.0000 0.0000 -0.0000 -0.0000 0.0000 -0.0000 10.8959 -18.1643 -1.0391 -21.8876 46.7841 71.5624 -179.9992 74.7199 179.9990 -19.6359 5.0044 -3.3827 -0.0000 -0.0000 0.0000 -0.0000 -0.0000 0.0000
 -83.6079 32.3649 35.9811 6.4108 34.0477 -10.9543 -27.1404 -1.7961 -0.4012 54.6701 -0.0000 0.0000 -24.5572 -1.0112 6.3975 6.9587 0.0000 -0.0000 2.7135 -6.7815 4.8048 30.4401 -0.0000 0.0000 -17.9241 0.9527 1.0899 -12.2160 0.0000 0.0000 -3.8223 5.3633 1.2786 10.5069 3.5341 0.6093 -1.4795 1.7652 -5.1623 -0.9321 3.8002 3.8107 20.4502 16.3870 -1.9935 1.6499 -38.8241 -60.0333 -179.9992 -75.2051 -179.9990 -5.1340 1.9659 -12.3196 -0.0000 -0.0000 -0.0000 -0.0000 -0.0000 -0.0000 10.8359 -18.2877 -1.1835 -22.4070 46.8665 72.4352 -179.9993 73.7643 179.9990 -19.4502 4.6873 -3.0472 0.0000 -0.0000 -0.0000 0.0000 -0.0000 -0.0000
 -83.2730 32.5311 36.4523 6.4191 34.7273 -10.6392 -26.7287 -1.4223 -1.1740 50.8641 -0.0000 0.0000 -24.4066 -1.2275 6.1918 6.7395 0.0000 -0.0000 3.9834 -7.6046 4.2881 29.6328 -0.0000 0.0000 -15.6792 1.6952 1.7639 -13.1211 -0.0000 0.0000 -3.8812 5.4728 1.1023 10.6484 3.5978 0.3393 -1.6074 1.7523 -5.1317 -0.7696 3.4938 3.9883 20.2162 16.3830 -1.6611 2.2032 -38.0444 -60.2430 -179.9992 -75.0282 -179.9990 -5.2523 2.0036 -12.1584 0.0000 -0.0000 0.0000 0.0000 -0.0000 0.0000 10.6944 -18.3825 -1.3974 -22.9788 47.0191 73.4629 -179.9993 72.9962 179.9991 -19.2227 4.5377 -2.9132 -0.0000 -0.0000 0.0000 -0.0000 -0.0000 0.0000
 -82.9855 32.6736 36.9081 6.8997 35.4596 -10.9256 -26.8154 -1.1197 -1.6011 47.2883 -0.0000 0.0000 -24.2721 -1.4980 5.8712 6.5959 0.0000 0.0000 4.7613 -8.1976 4.2467 28.9912 0.0000 -0.0000 -13.4597 2.1119 2.7965 -14.1389 0.0000 0.0000 -3.9775 5.5056 1.0621 10.3069 3.6167 0.2620 -1.6692 1.6137 -5.2075 -0.6835 3.2997 4.3115 20.4809 16.5273 -1.4328 2.2850 -37.5311 -60.4771 -179.9992 -74.9566 -179.9990 -5.7984 1.8082 -12.0314 0.0000 -0.0000 0.0000 0.0000 -0.0000 0.0000 10.5895 -18.6427 -1.6882 -23.4883 47.3321 74.5358 -179.9993 72.2920 179.9991 -19.0474 4.5260 -3.2429 0.0000 -0.0000 0.0000 0.0000 -0.0000 0.0000
 -82.6623 32.8013 37.3707 7.0466 36.0731 -10.8107 -26.4192 -0.6142 -2.1982 43.5376 -0.0000 0.0000 -23.9069 -1.7357 5.7941 6.3235 -0.0000 -0.0000 5.6673 -8.7212 3.9033 28.5190 -0.0000 0.0000 -11.1947 2.7712 3.7535 -14.8951 -0.0000 -0.0000 -4.0883 5.5621 0.9462 10.3773 3.6378 0.0440 -1.7827 1.6025 -5.1757 -0.5765 3.0846 4.3410 20.2723 16.5451 -1.1126 2.6971 -36.7584 -60.7987 -179.9992 -74.7387 -179.9990 -6.5573 1.5963 -12.0215 -0.0000 0.0000 -0.0000 -0.0000 0.0000 -0.0000 10.4564 -18.5951 -1.9251 -23.8688 47.3862 75.4461 -179.9994 71.6708 179.9991 -19.0194 4.4284 -2.6035 -0.0000 0.0000 -0.0000 -0.0000 0.0000 -0.0000
 -82.3710 32.8991 37.8222 7.4768 36.8409 -11.0593 -26.2847 -0.2090 -2.6428 40.0008 -0.0000 0.0000 -23.5725 -2.1464 5.5519 6.1566 0.0000 0.0000 6.2339 -9.2585 3.8162 28.3651 0.0000 0.0000 -9.2733 3.2701 4.6866 -15.5827 0.0000 -0.0000 -4.1880 5.5549 0.8957 10.1813 3.6160 -0.0417 -1.8772 1.4886 -5.2210 -0.6495 2.9005 4.5577 20.4697 16.5958 -0.8262 2.6883 -36.3108 -61.1408 -179.9992 -74.5182 -179.9990 -6.6998 1.6352 -11.6072 -0.0000 -0.0000 -0.0000 -0.0000 -0.0000 -0.0000 10.3804 -18.8324 -2.1986 -24.3150 47.6072 76.4168 -179.9994 71.1051 179.9991 -19.2951 4.5269 -2.8551 -0.0000 -0.0000 0.0000 -0.0000 -0.0000 0.0000
 -82.0851 32.9773 38.2656 7.8445 37.4098 -11.2702 -26.0651 0.3686 -3.0090 36.5745 0.0000 0.0000 -23.2203 -2.4728 5.1352 6.2284 -0.0000 -0.0000 6.5771 -9.3739 3.7151 28.5768 -0.0000 0.0000 -7.6131 3.6071 5.5392 -13.5262 0.0000 -0.0000 -4.2884 5.5857 0.8194 10.1017 3.6545 -0.0555 -2.0898 1.4721 -5.3428 -0.6377 2.7271 4.7105 20.1086 16.5871 -0.5142 3.1367 -35.7589 -61.5237 -179.9993 -74.2634 -179.9990 -6.9190 1.4426 -11.2666 -0.0000 -0.0000 -0.0000 -0.0000 -0.0000 -0.0000 10.1611 -18.9090 -2.5436 -24.5983 47.7001 77.3266 -179.9994 70.6339 179.9992 -24.0617 6.5143 -4.3509 0.0000 0.0000 -0.0000 0.0000 0.0000 -0.0000
 -81.7660 33.0325 38.7298 7.9285 37.9419 -11.1956 -25.4414 1.0565 -3.4943 33.2096 -0.0000 0.0000 -22.8893 -2.7115 5.1401 6.2525 0.0000 -0.0000 7.1000 -9.4549 3.4311 28.8735 -0.0000 0.0000 -5.8673 4.2455 6.8256 -13.6085 -0.0000 -0.0000 -4.3954 5.5971 0.7413 10.2772 3.6407 -0.2368 -2.2160 1.5080 -5.3216 -0.8227 2.6066 4.6852 20.1262 16.6685 -0.3383 3.1246 -35.2124 -61.8811 -179.9993 -73.9814 -179.9990 -7.1368 1.4076 -11.0949 0.0000 0.0000 -0.0000 0.0000 0.0000 -0.0000 10.0130 -18.8097 -2.7230 -24.7394 47.8035 78.0191 -179.9994 70.2290 179.9992 -23.4174 6.2440 -4.0087 0.0000 -0.0000 0.0000 0.0000 -0.0000 0.0000
